<svg width="64" height="64" viewBox="0 0 64 64" fill="none" xmlns="http://www.w3.org/2000/svg">
<g id="gold-medal">
<path id="Vector" d="M58.6667 5.33398H41.3333L36 19.0675C41.9485 20.2749 46.9384 24.1225 49.6932 29.334L58.6667 5.33398Z" stroke="#2DAD00" stroke-width="4.21053" stroke-linecap="round" stroke-linejoin="round"/>
<path id="Vector_2" d="M22.6667 5.33398H5.33337L14.3068 29.334C17.0616 24.1225 22.0515 20.2749 28 19.0675L22.6667 5.33398Z" stroke="#2DAD00" stroke-width="4.21053" stroke-linecap="round" stroke-linejoin="round"/>
<path id="Vector_3" d="M52 38.666C52 49.7117 43.0457 58.666 32 58.666C20.9543 58.666 12 49.7117 12 38.666C12 35.2951 12.8339 32.1189 14.3068 29.3327C17.0616 24.1212 22.0515 20.2736 28 19.0661C29.2924 18.8037 30.6301 18.666 32 18.666C33.3699 18.666 34.7076 18.8037 36 19.0661C41.9485 20.2736 46.9384 24.1212 49.6932 29.3327C51.166 32.1189 52 35.2951 52 38.666Z" stroke="#2DAD00" stroke-width="4.21053" stroke-linecap="round" stroke-linejoin="round"/>
<path id="Vector_4" d="M32 46.6673H26.6666M32 46.6673V29.334L28 30.6673L32 46.6673ZM32 46.6673H37.3333H32Z" stroke="#2DAD00" stroke-width="4.21053" stroke-linecap="round" stroke-linejoin="round"/>
</g>
</svg>
