<svg width="25" height="24" viewBox="0 0 25 24" fill="none" xmlns="http://www.w3.org/2000/svg">
<path id="Vector" fill-rule="evenodd" clip-rule="evenodd" d="M12.1992 0C5.57449 0 0.199219 5.37527 0.199219 12C0.199219 18.6248 5.57449 24 12.1992 24C18.8109 24 24.1992 18.6248 24.1992 12C24.1992 5.37527 18.8109 0 12.1992 0ZM20.1254 5.53145C21.5571 7.27549 22.4162 9.50107 22.4422 11.9089C22.1038 11.8439 18.7198 11.154 15.3098 11.5835C15.2318 11.4143 15.1667 11.2321 15.0886 11.0499C14.8803 10.5554 14.6461 10.0477 14.4118 9.56618C18.1862 8.0304 19.9042 5.81779 20.1254 5.53145ZM12.1992 1.77007C14.8022 1.77007 17.184 2.74621 18.9932 4.34707C18.8109 4.60738 17.2621 6.67679 13.6178 8.04338C11.9389 4.95878 10.0778 2.43384 9.79142 2.04338C10.5593 1.86117 11.3663 1.77007 12.1992 1.77007ZM7.83917 2.73319C8.11247 3.09761 9.93459 5.63558 11.6396 8.65508C6.84998 9.9306 2.62005 9.90458 2.16451 9.90458C2.82828 6.72885 4.97579 4.08676 7.83917 2.73319ZM1.94325 12.0131C1.94325 11.9089 1.94325 11.8048 1.94325 11.7007C2.38577 11.7136 7.35757 11.7787 12.4725 10.243C12.7719 10.8156 13.0452 11.4013 13.3055 11.9869C13.1753 12.026 13.0322 12.0651 12.902 12.1041C7.61787 13.8091 4.8066 18.4685 4.57232 18.859C2.94542 17.0499 1.94325 14.6421 1.94325 12.0131ZM12.1992 22.256C9.83042 22.256 7.64391 21.449 5.91288 20.0954C6.0951 19.718 8.17749 15.7094 13.9562 13.692C13.9823 13.679 13.9953 13.679 14.0213 13.666C15.466 17.4013 16.0517 20.5379 16.2079 21.436C14.9714 21.9696 13.6178 22.256 12.1992 22.256ZM17.9129 20.4989C17.8088 19.8742 17.2621 16.8807 15.9215 13.1974C19.1363 12.6898 21.9476 13.5228 22.299 13.6399C21.8565 16.4902 20.2166 18.9501 17.9129 20.4989Z" fill="#758179"/>
</svg>
