<svg width="14" height="16" viewBox="0 0 14 16" fill="none" xmlns="http://www.w3.org/2000/svg">
<g id="Vector">
<path d="M6.89471 2.63052C5.71864 2.65932 4.60451 3.16533 3.80723 4.03272C3.01001 4.90037 2.59778 6.05503 2.66501 7.23289C2.73201 8.41076 3.27285 9.51097 4.16334 10.2817C4.71953 10.7549 5.04204 11.4477 5.04717 12.1792V12.3647C5.04717 12.4596 5.08501 12.5504 5.15222 12.6171C5.21922 12.6837 5.31002 12.7207 5.40461 12.72H8.59533C8.68925 12.72 8.7794 12.6825 8.84572 12.616C8.91227 12.5493 8.94943 12.4589 8.94943 12.3647V12.1823C8.95366 11.4498 9.27638 10.7556 9.83326 10.2817C10.7424 9.49484 11.2862 8.36566 11.3351 7.16254C11.3843 5.95942 10.9345 4.78938 10.0925 3.93089C9.25078 3.07222 8.09187 2.60142 6.89153 2.63045L6.89471 2.63052Z" fill="#2DAD00"/>
<path d="M8.59559 13.149H5.40487C5.20924 13.149 5.05077 13.3079 5.05077 13.5041V14.8031C5.05077 14.9994 5.20924 15.1585 5.40487 15.1585C5.49879 15.1585 5.58894 15.1958 5.65526 15.2625C5.72181 15.329 5.75897 15.4194 5.75897 15.5136V15.6449C5.75897 15.8397 5.91566 15.9982 6.10996 16H7.8905C7.98442 16 8.07456 15.9625 8.14088 15.896C8.20721 15.8292 8.2446 15.7391 8.2446 15.6449V15.5136C8.2446 15.3188 8.40129 15.1601 8.59559 15.1585C8.68951 15.1585 8.77965 15.121 8.84597 15.0545C8.91252 14.9877 8.94969 14.8973 8.94969 14.8032V13.5041C8.94969 13.3079 8.79122 13.149 8.59559 13.149Z" fill="#2DAD00"/>
<path d="M7.00021 1.62229C7.20631 1.62229 7.37345 1.45466 7.37345 1.24797V0.374324C7.37345 0.167631 7.20631 0 7.00021 0C6.79411 0 6.62696 0.167631 6.62696 0.374324V1.24797C6.62696 1.34729 6.66613 1.4426 6.73624 1.51269C6.80635 1.583 6.90116 1.62229 7.00021 1.62229Z" fill="#2DAD00"/>
<path d="M2.69281 10.774L2.07717 11.3916C1.96968 11.4988 1.9374 11.6604 1.99549 11.8008C2.05336 11.9412 2.19046 12.0322 2.3418 12.0316C2.44018 12.0327 2.53477 11.9934 2.60355 11.9229L3.21941 11.3052C3.28997 11.2349 3.32958 11.1394 3.32958 11.0396C3.32958 10.9398 3.28997 10.8443 3.21941 10.774C3.14974 10.7035 3.05516 10.6637 2.95611 10.6637C2.85729 10.6637 2.76248 10.7034 2.69281 10.774Z" fill="#2DAD00"/>
<path d="M11.4068 2.03207L10.7687 2.67201C10.6612 2.77892 10.629 2.94097 10.6871 3.08115C10.7452 3.22155 10.882 3.31284 11.0336 3.31217C11.1369 3.31597 11.2368 3.27512 11.308 3.20012L11.9208 2.58562C12.0714 2.44343 12.0783 2.20572 11.9366 2.0546C11.7946 1.90349 11.5575 1.89635 11.4068 2.03853L11.4068 2.03207Z" fill="#2DAD00"/>
<path d="M1.27907 6.60812H0.411078C0.305579 6.5983 0.200975 6.63357 0.122853 6.705C0.0445099 6.77665 0 6.87798 0 6.98401C0 7.09026 0.0445127 7.19159 0.122853 7.26302C0.200975 7.33467 0.305579 7.36994 0.411078 7.36012H1.27907C1.38434 7.36994 1.48895 7.33467 1.56729 7.26302C1.64541 7.19159 1.69015 7.09026 1.69015 6.98401C1.69015 6.87798 1.64541 6.77665 1.56729 6.705C1.48895 6.63357 1.38434 6.5983 1.27907 6.60812Z" fill="#2DAD00"/>
<path d="M13.5889 6.60812H12.7209C12.6157 6.5983 12.5111 6.63357 12.4327 6.705C12.3546 6.77665 12.3099 6.87798 12.3099 6.98401C12.3099 7.09026 12.3546 7.19159 12.4327 7.26302C12.5111 7.33467 12.6157 7.36994 12.7209 7.36012H13.5889C13.6944 7.36994 13.799 7.33467 13.8771 7.26302C13.9555 7.19159 14 7.09026 14 6.98401C14 6.87798 13.9555 6.77665 13.8771 6.705C13.799 6.63357 13.6944 6.5983 13.5889 6.60812Z" fill="#2DAD00"/>
<path d="M11.3077 10.774C11.2381 10.7035 11.1433 10.6637 11.0444 10.6637C10.9454 10.6637 10.8508 10.7035 10.7811 10.774C10.7106 10.8443 10.671 10.9398 10.671 11.0396C10.671 11.1394 10.7106 11.2349 10.7811 11.3052L11.3939 11.9229C11.5401 12.0695 11.7771 12.0695 11.9234 11.9229C11.9937 11.8523 12.0331 11.7568 12.0331 11.6573C12.0331 11.5577 11.9937 11.4622 11.9234 11.3916L11.3077 10.774Z" fill="#2DAD00"/>
<path d="M2.69266 3.19995C2.76143 3.27049 2.85603 3.30977 2.9544 3.30865C3.10597 3.30954 3.24285 3.21825 3.30094 3.07785C3.35903 2.93745 3.32676 2.77584 3.21926 2.6687L2.60339 2.05106C2.53395 1.98052 2.43914 1.94079 2.34009 1.94079C2.24127 1.94079 2.14646 1.98052 2.07702 2.05106C2.00646 2.12137 1.96663 2.21712 1.96663 2.31668C1.96663 2.41645 2.00646 2.51199 2.07702 2.58229L2.69266 3.19995Z" fill="#2DAD00"/>
</g>
</svg>
