<svg width="14" height="17" viewBox="0 0 14 17" fill="none" xmlns="http://www.w3.org/2000/svg">
<g id="Vector">
<path d="M6.89471 3.13052C5.71864 3.15932 4.60451 3.66533 3.80723 4.53272C3.01001 5.40037 2.59778 6.55503 2.66501 7.73289C2.73201 8.91076 3.27285 10.011 4.16334 10.7817C4.71953 11.2549 5.04204 11.9477 5.04717 12.6792V12.8647C5.04717 12.9596 5.08501 13.0504 5.15222 13.1171C5.21922 13.1837 5.31002 13.2207 5.40461 13.22H8.59533C8.68925 13.22 8.7794 13.1825 8.84572 13.116C8.91227 13.0493 8.94943 12.9589 8.94943 12.8647V12.6823C8.95366 11.9498 9.27638 11.2556 9.83326 10.7817C10.7424 9.99484 11.2862 8.86566 11.3351 7.66254C11.3843 6.45942 10.9345 5.28938 10.0925 4.43089C9.25078 3.57222 8.09187 3.10142 6.89153 3.13045L6.89471 3.13052Z" fill="#9DA6A0"/>
<path d="M8.59559 13.649H5.40487C5.20924 13.649 5.05077 13.8079 5.05077 14.0041V15.3031C5.05077 15.4994 5.20924 15.6585 5.40487 15.6585C5.49879 15.6585 5.58894 15.6958 5.65526 15.7625C5.72181 15.829 5.75897 15.9194 5.75897 16.0136V16.1449C5.75897 16.3397 5.91566 16.4982 6.10996 16.5H7.8905C7.98442 16.5 8.07456 16.4625 8.14088 16.396C8.20721 16.3292 8.2446 16.2391 8.2446 16.1449V16.0136C8.2446 15.8188 8.40129 15.6601 8.59559 15.6585C8.68951 15.6585 8.77965 15.621 8.84597 15.5545C8.91252 15.4877 8.94969 15.3973 8.94969 15.3032V14.0041C8.94969 13.8079 8.79122 13.649 8.59559 13.649Z" fill="#9DA6A0"/>
<path d="M7.00021 2.12229C7.20631 2.12229 7.37345 1.95466 7.37345 1.74797V0.874324C7.37345 0.667631 7.20631 0.5 7.00021 0.5C6.79411 0.5 6.62696 0.667631 6.62696 0.874324V1.74797C6.62696 1.84729 6.66613 1.9426 6.73624 2.01269C6.80635 2.083 6.90116 2.12229 7.00021 2.12229Z" fill="#9DA6A0"/>
<path d="M2.69281 11.274L2.07717 11.8916C1.96968 11.9988 1.9374 12.1604 1.99549 12.3008C2.05336 12.4412 2.19046 12.5322 2.3418 12.5316C2.44018 12.5327 2.53477 12.4934 2.60355 12.4229L3.21941 11.8052C3.28997 11.7349 3.32958 11.6394 3.32958 11.5396C3.32958 11.4398 3.28997 11.3443 3.21941 11.274C3.14974 11.2035 3.05516 11.1637 2.95611 11.1637C2.85729 11.1637 2.76248 11.2034 2.69281 11.274Z" fill="#9DA6A0"/>
<path d="M11.4068 2.53207L10.7687 3.17201C10.6612 3.27892 10.629 3.44097 10.6871 3.58115C10.7452 3.72155 10.882 3.81284 11.0336 3.81217C11.1369 3.81597 11.2368 3.77512 11.308 3.70012L11.9208 3.08562C12.0714 2.94343 12.0783 2.70572 11.9366 2.5546C11.7946 2.40349 11.5575 2.39635 11.4068 2.53853L11.4068 2.53207Z" fill="#9DA6A0"/>
<path d="M1.27907 7.10812H0.411078C0.305579 7.0983 0.200975 7.13357 0.122853 7.205C0.0445099 7.27665 0 7.37798 0 7.48401C0 7.59026 0.0445127 7.69159 0.122853 7.76302C0.200975 7.83467 0.305579 7.86994 0.411078 7.86012H1.27907C1.38434 7.86994 1.48895 7.83467 1.56729 7.76302C1.64541 7.69159 1.69015 7.59026 1.69015 7.48401C1.69015 7.37798 1.64541 7.27665 1.56729 7.205C1.48895 7.13357 1.38434 7.0983 1.27907 7.10812Z" fill="#9DA6A0"/>
<path d="M13.5889 7.10812H12.7209C12.6157 7.0983 12.5111 7.13357 12.4327 7.205C12.3546 7.27665 12.3099 7.37798 12.3099 7.48401C12.3099 7.59026 12.3546 7.69159 12.4327 7.76302C12.5111 7.83467 12.6157 7.86994 12.7209 7.86012H13.5889C13.6944 7.86994 13.799 7.83467 13.8771 7.76302C13.9555 7.69159 14 7.59026 14 7.48401C14 7.37798 13.9555 7.27665 13.8771 7.205C13.799 7.13357 13.6944 7.0983 13.5889 7.10812Z" fill="#9DA6A0"/>
<path d="M11.3077 11.274C11.2381 11.2035 11.1433 11.1637 11.0444 11.1637C10.9454 11.1637 10.8508 11.2035 10.7811 11.274C10.7106 11.3443 10.671 11.4398 10.671 11.5396C10.671 11.6394 10.7106 11.7349 10.7811 11.8052L11.3939 12.4229C11.5401 12.5695 11.7771 12.5695 11.9234 12.4229C11.9937 12.3523 12.0331 12.2568 12.0331 12.1573C12.0331 12.0577 11.9937 11.9622 11.9234 11.8916L11.3077 11.274Z" fill="#9DA6A0"/>
<path d="M2.69266 3.69995C2.76143 3.77049 2.85603 3.80977 2.9544 3.80865C3.10597 3.80954 3.24285 3.71825 3.30094 3.57785C3.35903 3.43745 3.32676 3.27584 3.21926 3.1687L2.60339 2.55106C2.53395 2.48052 2.43914 2.44079 2.34009 2.44079C2.24127 2.44079 2.14646 2.48052 2.07702 2.55106C2.00646 2.62137 1.96663 2.71712 1.96663 2.81668C1.96663 2.91645 2.00646 3.01199 2.07702 3.08229L2.69266 3.69995Z" fill="#9DA6A0"/>
</g>
</svg>
