<svg width="25" height="24" viewBox="0 0 25 24" fill="none" xmlns="http://www.w3.org/2000/svg">
<path id="Vector" d="M22.4227 0H1.97109C0.991406 0 0.199219 0.773438 0.199219 1.72969V22.2656C0.199219 23.2219 0.991406 24 1.97109 24H22.4227C23.4023 24 24.1992 23.2219 24.1992 22.2703V1.72969C24.1992 0.773438 23.4023 0 22.4227 0ZM7.31953 20.4516H3.75703V8.99531H7.31953V20.4516ZM5.53828 7.43438C4.39453 7.43438 3.47109 6.51094 3.47109 5.37187C3.47109 4.23281 4.39453 3.30937 5.53828 3.30937C6.67734 3.30937 7.60078 4.23281 7.60078 5.37187C7.60078 6.50625 6.67734 7.43438 5.53828 7.43438ZM20.6508 20.4516H17.093V14.8828C17.093 13.5562 17.0695 11.8453 15.2414 11.8453C13.3898 11.8453 13.1086 13.2937 13.1086 14.7891V20.4516H9.55547V8.99531H12.968V10.5609H13.0148C13.4883 9.66094 14.6508 8.70938 16.3805 8.70938C19.9852 8.70938 20.6508 11.0813 20.6508 14.1656V20.4516Z" fill="#758179"/>
</svg>
