<svg width="25" height="24" viewBox="0 0 25 24" fill="none" xmlns="http://www.w3.org/2000/svg">
<path id="Vector" d="M24.7121 17.4696C24.5466 17.0161 24.2279 16.771 23.8663 16.5749C23.7989 16.5381 23.7376 16.5013 23.6825 16.4768C23.5721 16.4216 23.4618 16.3665 23.3515 16.3113C22.2239 15.7107 21.3413 14.963 20.7346 14.0683C20.563 13.817 20.4098 13.5473 20.2872 13.2715C20.2321 13.1245 20.2382 13.0387 20.275 12.959C20.3117 12.8977 20.3608 12.8487 20.4221 12.8058C20.6182 12.6771 20.8143 12.5484 20.9491 12.4626C21.1881 12.3032 21.3842 12.1807 21.5068 12.0949C21.9665 11.77 22.2913 11.4268 22.4935 11.0407C22.7816 10.5014 22.8183 9.87018 22.5977 9.30022C22.2913 8.49125 21.5313 7.99483 20.6059 7.99483C20.4098 7.99483 20.2198 8.01322 20.0237 8.05612C19.9747 8.06838 19.9195 8.08063 19.8705 8.09289C19.8766 7.54132 19.8643 6.9591 19.8153 6.38301C19.6437 4.36671 18.9328 3.31259 18.1974 2.47298C17.7255 1.94592 17.1739 1.49853 16.5549 1.1492C15.4395 0.511827 14.1709 0.187012 12.792 0.187012C11.413 0.187012 10.1505 0.511827 9.03513 1.1492C8.41614 1.49853 7.86457 1.94592 7.39267 2.47298C6.65724 3.31259 5.95245 4.37284 5.77472 6.38301C5.7257 6.9591 5.71344 7.54132 5.71957 8.09289C5.67054 8.08063 5.62151 8.06838 5.56635 8.05612C5.37637 8.01322 5.18025 7.99483 4.99026 7.99483C4.06485 7.99483 3.3049 8.49738 2.99847 9.30022C2.77784 9.87018 2.81462 10.5014 3.10266 11.0407C3.3049 11.4268 3.62972 11.77 4.08936 12.0949C4.21193 12.1807 4.40192 12.3032 4.64706 12.4626C4.77576 12.5484 4.96575 12.6709 5.15574 12.7935C5.22315 12.8364 5.27831 12.8916 5.32121 12.959C5.35798 13.0387 5.36411 13.1245 5.30282 13.2838C5.18025 13.5535 5.03316 13.817 4.86156 14.0621C4.26709 14.9324 3.40909 15.674 2.3182 16.2684C1.74211 16.5749 1.14151 16.7771 0.88411 17.4696C0.694124 17.9906 0.816696 18.5789 1.30085 19.0815C1.47858 19.2653 1.68696 19.4247 1.91371 19.5472C2.38561 19.8046 2.88816 20.0069 3.41522 20.1478C3.52553 20.1785 3.62359 20.2214 3.71552 20.2827C3.89325 20.4359 3.86873 20.6688 4.10162 21.012C4.21806 21.1897 4.37128 21.3429 4.54288 21.4655C5.03929 21.8087 5.59699 21.8271 6.18534 21.8516C6.71853 21.87 7.31913 21.8945 8.01166 22.1212C8.2997 22.2132 8.59387 22.397 8.93707 22.6115C9.76443 23.1202 10.8921 23.8127 12.7858 23.8127C14.6796 23.8127 15.8134 23.1141 16.6468 22.6054C16.99 22.397 17.2842 22.2132 17.56 22.1212C18.2464 21.8945 18.8531 21.87 19.3863 21.8516C19.9747 21.8271 20.5324 21.8087 21.0288 21.4655C21.2372 21.3184 21.4088 21.1345 21.5313 20.9139C21.7029 20.6259 21.6968 20.4236 21.8561 20.2827C21.9419 20.2214 22.04 20.1785 22.1381 20.154C22.6651 20.013 23.1799 19.8108 23.6579 19.5472C23.897 19.4185 24.1176 19.2469 24.3014 19.0447L24.3076 19.0385C24.7856 18.5483 24.9021 17.9722 24.7121 17.4696ZM23.0328 18.3705C22.0094 18.9344 21.323 18.8731 20.7959 19.2163C20.3424 19.5043 20.612 20.1294 20.2872 20.3562C19.8827 20.632 18.6938 20.3378 17.1616 20.8465C15.893 21.2632 15.0902 22.4706 12.8103 22.4706C10.5305 22.4706 9.74605 21.2694 8.45905 20.8465C6.9269 20.3378 5.73795 20.6381 5.33347 20.3562C5.00865 20.1294 5.27218 19.5043 4.82479 19.2163C4.29161 18.8731 3.61133 18.9344 2.58786 18.3705C1.9321 18.0089 2.30594 17.7883 2.52044 17.6841C6.23437 15.8885 6.82884 13.1122 6.85335 12.9038C6.884 12.6526 6.92077 12.4564 6.64498 12.2052C6.38145 11.96 5.20476 11.2307 4.87382 11.004C4.33451 10.624 4.09549 10.2502 4.27322 9.78438C4.39579 9.46569 4.69609 9.34312 5.00865 9.34312C5.10671 9.34312 5.20476 9.35538 5.30282 9.37376C5.89729 9.50247 6.47338 9.79664 6.80433 9.88244C6.84723 9.8947 6.884 9.90082 6.9269 9.90082C7.10463 9.90082 7.16591 9.8089 7.15366 9.60665C7.11689 8.95702 7.02496 7.69453 7.12914 6.51171C7.2701 4.88764 7.79103 4.07867 8.41614 3.36775C8.71645 3.02455 10.1199 1.54143 12.8103 1.54143C15.5008 1.54143 16.9042 3.01842 17.2045 3.36162C17.8297 4.07254 18.3506 4.88151 18.4915 6.50559C18.5957 7.6884 18.5038 8.95089 18.4609 9.60052C18.4486 9.81502 18.5099 9.8947 18.6877 9.8947C18.7306 9.8947 18.7673 9.88857 18.8102 9.87631C19.1412 9.79664 19.7173 9.49634 20.3117 9.36764C20.4098 9.34312 20.5079 9.33699 20.6059 9.33699C20.9185 9.33699 21.2188 9.45957 21.3413 9.77825C21.5191 10.244 21.2801 10.6179 20.7407 10.9978C20.4159 11.2246 19.2392 11.9539 18.9696 12.199C18.6938 12.4503 18.7306 12.6464 18.7612 12.8977C18.7857 13.1061 19.3802 15.8823 23.0941 17.678C23.3147 17.7822 23.6825 18.0089 23.0328 18.3705Z" fill="#758179"/>
</svg>
